<svg xmlns="http://www.w3.org/2000/svg" viewBox="0 0 1366 1366"><defs><style>.cls-1{fill:none;stroke:#554000;stroke-miterlimit:10;stroke-width:55px;}.cls-2{fill:#68217a;}.cls-3{fill:#9b4f96;}.cls-4{fill:#5c0070;}.cls-5{fill:#954390;}.cls-6{fill:#fdfcfd;}.cls-7{fill:#f7f4f7;}.cls-8{fill:#630d76;}.cls-9{fill:#5d0471;}.cls-10{fill:#6c287d;}.cls-11{fill:#efda4f;}.cls-12{fill:#323330;}.cls-13{fill:#90c43f;}.cls-14{fill:#86bf2a;}.cls-15{fill:#484c3d;}.cls-16{fill:#fbfcf9;}.cls-17{fill:#494d3d;}.cls-18{fill:#46493c;}.cls-19{fill:#8abc40;}.cls-20{fill:#90c440;}.cls-21{fill:#4f5b93;}.cls-22{fill:#fdfdfe;}.cls-23{fill:#505c93;}.cls-24{fill:#61d9fa;}.cls-25{fill:#62d9fa;}.cls-26{fill:#41b783;}.cls-27{fill:#34495e;}</style></defs><title>portweb</title><g id="Layer_2" data-name="Layer 2"><circle class="cls-1" cx="682.72" cy="691.71" r="604.25"/></g><g id="C_" data-name="C#"><path class="cls-2" d="M340.43,1062.87l.63-1.21c2.51-.55,3.16-2.89,4.3-4.66q33.31-51.66,66.53-103.38c1.15-1.79,2.94-3.36,2.62-5.83,3.5-3.5,7.76-4.55,12.6-4.32Q488.46,946.3,549.8,949c7.74.33,13.15,3.64,16.71,10.62q28,55,56.29,109.89c1.37,2.67,3.23,5.33,1.81,8.62-16.83-1.48-33.71-2-50.59-2.38-.11-29.15-10.18-53.95-32.14-73.55-5.11-7.3-12.26-11.49-20.76-13.61-4-3.61-9.31-3.36-14-4.67-21-5.83-41.54-4.18-61.67,4.24-4.34,1.81-4.9,3.58-2.61,7.59,3.78,6.65,7.19,13.53,10.33,20.5,1.83,4.06,3.27,5.27,8.09,3.26,13.14-5.46,26.7-6.33,40.14-.44.17,1.62.89.81,1.53.35l.25.26-.22.3,18,11.6.18-.32.35.12c-.15.78-.59,1.77,1,1.25,12,11.34,17,25.39,16.13,41.71-1.95-.26-3.89-.67-5.84-.76-25.74-1.24-51.47-2.75-77.23-3.48-9.71-.27-19.47-2.35-29.22-.22-1.57-2.13-3.93-1.42-6-1.55-9.25-.58-18.51-1.07-27.77-1.59-2.58.06-5.16.24-7.74.14-15.09-.58-30.17-1.22-45.26-1.84a.51.51,0,0,1,.23-.71C340.63,1064.16,340.74,1063.61,340.43,1062.87Zm75.09-31c2.54-.76,2.32-6.49,7.12-3.9,2.23,1.2,4.33,3.63,6.3-.29,1.17-2.32,4.41-4.71,3.27-6.85-2.78-5.22.9-7.14,3.58-10,1.29-1.36,4.19-3.51.72-5-3.88-1.71-8.27-5.53-12.22.77-1,1.66-2.58,4.86-6.18,3.48-5-1.92-5-3.74-.1-9.15,1.37-1.52,5.88-3,1.84-5.81-2.72-1.87-6-7.1-9.81-1.8-4.27,6-9.06,6.81-15.08,3.34-5-2.9-5.05,2.33-7,4.32-2.31,2.42-1.2,4.19,1.42,5.61,2.34,1.27,3.87,3,1.91,5.78-1.58,2.24-3.38,3.46-6,1.36-1.7-1.38-3.75-2-5.23-.12-2,2.52-6,6-4.39,8.18,3.87,5.3-.34,6.95-2.81,9.58-2.28,2.43-2.85,3.88.43,6.58,5.83,4.81,8.32.72,11.53-2.94,2.18-2.48,4.87-4.14,7.89-1.23s.54,5.25-1.62,7c-4.87,3.88-4.17,6.32,1.09,9.34,3.84,2.2,5.16.16,7.65-1.86,2.66-2.16,4.24-8.9,9.51-4.15,5.94,5.36,8.22,1.57,11.1-3.19C424.31,1034.64,416.47,1035.65,415.52,1031.91Z"/><path class="cls-3" d="M574,1075.75c16.88.37,33.76.89,50.59,2.38l-.48,2.92c-.19,0-.54,0-.55.11a6,6,0,0,0,0,1c-1.05,1.92-2,3.9-3.17,5.74-22.07,34.34-44.26,68.6-66.16,103-4.51,7.09-10.06,10-18.52,9.54Q476,1197.35,416.2,1195c-8.82-.36-14.52-3.81-18.6-11.86-18.22-36-36.88-71.71-55.38-107.53-1.7-3.3-3.7-6.54-2.7-10.54,15.08.62,30.17,1.26,45.25,1.84,2.57.1,5.16-.09,7.74-.14-2.65,2.27-1.62,5.34-1.44,8,2.48,37.32,20,64.69,54.18,80.67,39.23,18.34,89.16,3.84,112.9-32.25C567.68,1108.7,572.37,1092.78,574,1075.75Z"/><path class="cls-4" d="M414.51,947.78c.32,2.48-1.47,4-2.62,5.83q-33.22,51.72-66.53,103.38c-1.14,1.77-1.79,4.11-4.3,4.66q27.82-43.52,55.67-87C402.52,965.59,408.58,956.72,414.51,947.78Z"/><path class="cls-3" d="M340.43,1062.87c.31.74.2,1.29-.68,1.48Z"/><path class="cls-5" d="M623.56,1082.16a6,6,0,0,1,0-1c0-.06.36-.07.55-.11A1.41,1.41,0,0,1,623.56,1082.16Z"/><path class="cls-6" d="M574,1075.75c-1.65,17-6.34,33-15.87,47.45-23.74,36.09-73.67,50.6-112.9,32.25-34.17-16-51.7-43.35-54.18-80.67-.18-2.68-1.21-5.75,1.44-8,9.26.52,18.52,1,27.77,1.59,2.06.13,4.42-.58,6,1.55a19.39,19.39,0,0,0-.48,3.16c.24,23.76,15.2,43.94,39.06,52.76,33.92,12.53,73.81-15.32,73.7-51.46.86-16.32-4.13-30.37-16.13-41.71l-1-1.25-.35-.12-.18.32a31.18,31.18,0,0,0-18-11.6l.22-.3-.26-.26-1.53-.35c-13.44-5.89-27-5-40.14.44-4.82,2-6.26.8-8.09-3.26-3.14-7-6.55-13.86-10.33-20.5-2.28-4-1.72-5.78,2.61-7.59,20.12-8.42,40.66-10.07,61.67-4.24,4.73,1.31,10.06,1.06,14,4.67a139.71,139.71,0,0,1,20.76,13.61C563.84,1021.8,573.91,1046.59,574,1075.75Z"/><path class="cls-3" d="M538.56,1074.35c.11,36.14-39.79,64-73.7,51.46C441,1117,426,1096.81,425.79,1073a19.39,19.39,0,0,1,.48-3.16c9.74-2.13,19.5-.05,29.22.22,25.75.72,51.49,2.24,77.23,3.48C534.67,1073.68,536.61,1074.09,538.56,1074.35Z"/><path class="cls-7" d="M415.52,1031.91c1,3.73,8.79,2.73,5,9-2.88,4.76-5.16,8.55-11.1,3.19-5.27-4.75-6.84,2-9.51,4.15-2.5,2-3.81,4.06-7.65,1.86-5.26-3-6-5.45-1.09-9.34,2.16-1.73,4.78-3.93,1.62-7s-5.71-1.24-7.89,1.23c-3.22,3.66-5.71,7.75-11.53,2.94-3.28-2.7-2.71-4.15-.43-6.58,2.47-2.63,6.68-4.28,2.81-9.58-1.59-2.18,2.41-5.66,4.39-8.18,1.49-1.89,3.53-1.26,5.23.12,2.59,2.1,4.39.88,6-1.36,2-2.78.42-4.52-1.91-5.78-2.62-1.42-3.73-3.19-1.42-5.61,1.91-2,1.93-7.22,7-4.32,6,3.47,10.81,2.67,15.08-3.34,3.77-5.3,7.08-.08,9.81,1.8,4,2.78-.46,4.29-1.84,5.81-4.89,5.41-4.93,7.23.1,9.15,3.6,1.37,5.14-1.82,6.18-3.48,3.95-6.3,8.34-2.48,12.22-.77,3.48,1.53.57,3.69-.72,5-2.69,2.83-6.36,4.76-3.58,10,1.14,2.14-2.1,4.53-3.27,6.85-2,3.92-4.07,1.49-6.3.29C417.84,1025.42,418.06,1031.16,415.52,1031.91Zm-17-9.91c3.53-.64,4.23,6.87,8.51,2.46,2-2.1,2.87-4.38,0-6.65C402.11,1013.76,401.38,1019.86,398.56,1022Z"/><path class="cls-8" d="M502.93,1020a31.18,31.18,0,0,1,18,11.6Z"/><path class="cls-9" d="M541.88,1002.2a139.71,139.71,0,0,0-20.76-13.61C529.62,990.71,536.77,994.9,541.88,1002.2Z"/><path class="cls-8" d="M521.47,1031.39l1,1.25C520.88,1033.16,521.32,1032.16,521.47,1031.39Z"/><path class="cls-8" d="M501.35,1019.08l1.53.35C502.24,1019.89,501.52,1020.7,501.35,1019.08Z"/><path class="cls-10" d="M398.56,1022c2.82-2.14,3.55-8.24,8.56-4.2,2.82,2.28,2,4.55,0,6.65C402.79,1028.87,402.1,1021.36,398.56,1022Z"/></g><g id="JS"><path class="cls-11" d="M929.28,785.86,1158.69,911l-.9,1.63-123.41,226.2c-.2.36-.42.72-.59,1.09s-.57.66-1.08.34c-.31-.2-.65-.36-1-.54L805.42,1016.28c-.47-.26-.93-.54-1.4-.81l.77-1.42Zm-78,185.83a55.21,55.21,0,0,0-5.92,16.44c-1.47,8.45-.63,16.53,4,24,3.61,5.82,8.86,9.76,14.94,12.72,8.95,4.35,18,4.89,27.3,1.08,6.38-2.62,12-6.47,17.48-10.6,4.23-3.19,8.25-6.65,12.62-9.66a24.8,24.8,0,0,1,7.17-3.65c5.75-1.65,14.88,3,13.33,11.88a15.14,15.14,0,0,1-10.64,12.48,23.19,23.19,0,0,1-6.86,1c-.62,0-.87.15-.82.84q.79,10.54,1.51,21.08c0,.57.2.79.8.77,7.49-.26,14.6-1.86,20.71-6.39,8.9-6.59,14.23-15.61,16.86-26.22a31.05,31.05,0,0,0-3.59-24.54c-3.58-5.86-8.8-9.82-15-12.66-8-3.7-16.22-4.44-24.66-1.56-6.77,2.31-12.6,6.22-18.2,10.54-4.39,3.39-8.66,6.95-13.23,10.09a23.93,23.93,0,0,1-7.17,3.65,11.24,11.24,0,0,1-14-13c1.62-9.42,6.65-16.38,15.57-20.22a31.34,31.34,0,0,1,10.66-2.26c.89-.05,1.27-.21,1.24-1.26-.23-7-.4-13.91-.54-20.87,0-.86-.24-1.1-1.11-1.1a43.86,43.86,0,0,0-21.48,5.39C863,954.67,856.46,962.31,851.23,971.69Zm94.89-14.76,0,.08q19,10.37,38,20.76c.94.51,1.33.46,1.86-.53q5.11-9.54,10.37-19c.59-1.06.55-1.5-.59-2.12q-35.64-19.37-71.23-38.82a35.09,35.09,0,0,1-5.43-3.5c-2.83-2.31-5-5-4.81-8.94a15.18,15.18,0,0,1,11.65-14,39.46,39.46,0,0,1,8.28-.74c.76,0,1-.19.92-1q-.53-10.74-1-21.48c0-.76-.3-1-1-1-9-.3-17.35,1.89-24.58,7.48-8,6.18-13,14.43-15.92,23.94-2.55,8.15-2.36,16.19,1.71,23.89a35.43,35.43,0,0,0,14.26,14.37C921,943.39,933.6,950.1,946.12,956.93Z"/><path class="cls-12" d="M851.23,971.69c5.23-9.38,11.79-17,21-22.09a43.86,43.86,0,0,1,21.48-5.39c.87,0,1.09.24,1.11,1.1.14,7,.3,13.92.54,20.87,0,1.06-.35,1.21-1.24,1.26a31.34,31.34,0,0,0-10.66,2.26c-8.92,3.85-14,10.8-15.57,20.22a11.24,11.24,0,0,0,14,13,23.93,23.93,0,0,0,7.17-3.65c4.57-3.15,8.84-6.7,13.23-10.09,5.59-4.32,11.43-8.24,18.2-10.54,8.44-2.88,16.65-2.13,24.66,1.56,6.15,2.84,11.37,6.8,15,12.66a31.05,31.05,0,0,1,3.59,24.54c-2.63,10.61-8,19.63-16.86,26.22-6.12,4.53-13.23,6.13-20.71,6.39-.61,0-.76-.2-.8-.77q-.73-10.54-1.51-21.08c-.05-.69.2-.83.82-.84a23.19,23.19,0,0,0,6.86-1,15.14,15.14,0,0,0,10.64-12.48c1.56-8.87-7.57-13.53-13.33-11.88a24.8,24.8,0,0,0-7.17,3.65c-4.37,3-8.4,6.47-12.62,9.66-5.47,4.13-11.1,8-17.48,10.6-9.27,3.81-18.36,3.27-27.3-1.08-6.08-3-11.32-6.9-14.94-12.72-4.61-7.43-5.46-15.51-4-24A55.21,55.21,0,0,1,851.23,971.69Z"/><path class="cls-12" d="M946.12,956.93c-12.52-6.83-25.12-13.55-37.54-20.55A35.43,35.43,0,0,1,894.32,922c-4.07-7.7-4.26-15.74-1.71-23.89,3-9.51,7.94-17.76,15.92-23.94,7.23-5.59,15.54-7.78,24.58-7.48.72,0,1,.22,1,1q.43,10.74,1,21.48c0,.78-.16,1-.92,1a39.46,39.46,0,0,0-8.28.74,15.18,15.18,0,0,0-11.65,14c-.14,3.91,2,6.63,4.81,8.94a35.09,35.09,0,0,0,5.43,3.5q35.61,19.42,71.23,38.82c1.14.62,1.18,1.06.59,2.12q-5.26,9.46-10.37,19c-.53,1-.92,1-1.86.53q-19-10.42-38-20.76Z"/></g><g id="node"><path class="cls-13" d="M542.16,784.67q-1.42-74.78,0-149.56c.28-.17.82-.38.8-.52a9,9,0,0,0-.49-1.61c2.22-7.12,9-8.63,14.23-11.78,38.3-23.08,76.74-45.92,115.13-68.83h9c17.28,13.3,36.9,22.61,55.34,33.93,21.1,13,42.54,25.36,64,37.65,7.33,4.2,10.45,9.63,10.38,18.44q-.49,67.26,0,134.52c.09,9.44-3.65,14.69-11.21,19.1C759,819.64,718.8,843.58,678.55,867.41h-6.72q-58-34.72-115.9-69.51c-4.93-3-11.3-4.43-13.38-11.14.21-.24.64-.61.59-.71A10.25,10.25,0,0,0,542.16,784.67Zm174.08-124c0,9.55,0,18.29,0,27,0,4.11.42,6.61-6,5.55-12.69-2.11-25.56,12-27.23,24.64-2,15,6.9,19.88,17.24,25.26,11.88,6.18,31.71-5.45,31.79-19.23.09-14.55-.7-29.16.25-43.65C733.05,668.86,728.55,663.17,716.24,660.65Zm-96.09,57.73c1.17,5.12-2.47,11.68,2.18,15.24,6.49,5,13.74,10.09,21.39,11.91,9.7,2.3,24.2-14,23.84-25.24-.18-5.54,2.78-12.47-2-16.36-6.35-5.13-14-11.66-21.17-11.74s-14.62,6.61-21.39,11.2C617.63,707,621.41,713.38,620.14,718.38Zm-15.62,4.09q0-1.15,0-2.29c0-14.48-8.35-25.12-22.43-28.52-5.7-1.38-25.85,11.7-26.14,17.49-.43,8.76-.17,17.57-.08,26.35,0,2.18.28,5.74,3.23,4.38,5.81-2.68,13.1-4.09,13.8-13,.49-6.18-3.13-16,7.45-15.7,10.37.28,6.28,10.07,7,16.21,1.08,8.76,8.45,11.81,14.2,12.06,5.5.24,1.81-7.31,2.82-11.27C604.87,726.38,604.49,724.37,604.53,722.46Zm182,15.1c-7-4.28-12.91-8.12-19-11.49-3.59-2-4.3-4.8-4-8.5.33-4.32,3.48-5.77,6.72-6.48,3.58-.78,6.39,1.33,8.44,4.25,1.33,1.9-.76,5.55,3.14,6.5,3.13-1.87,6.35-3.74,9.51-5.69,5-3.07,5.51-9,2-11.44-7.68-5.27-14.64-14.42-25.41-11.59-14.58,3.83-18.6,12-20.52,26.22-2.17,16,9.15,18.76,18.26,24.37C774.21,749,779.12,741.42,786.57,737.56Z"/><path class="cls-14" d="M542.47,633a9,9,0,0,1,.49,1.61c0,.13-.52.34-.8.52A2.22,2.22,0,0,1,542.47,633Z"/><path class="cls-14" d="M542.16,784.67a10.25,10.25,0,0,1,1,1.39c.05.1-.38.47-.59.71A2.05,2.05,0,0,1,542.16,784.67Z"/><path class="cls-15" d="M716.24,660.65c12.32,2.52,16.82,8.21,16.07,19.61-1,14.49-.16,29.09-.25,43.65-.08,13.78-19.91,25.41-31.79,19.23C689.92,737.75,681,732.91,683,717.87c1.67-12.64,14.54-26.75,27.23-24.64,6.4,1.07,6-1.44,6-5.55C716.24,678.94,716.24,670.19,716.24,660.65ZM708,710.91c-4.79.73-8.4,2.92-8.8,8.38s3.54,7.54,7.61,7.88c4.55.37,9-1.23,9.33-7.16C716.44,714.39,712.68,712.17,708,710.91Z"/><path class="cls-16" d="M620.14,718.38c1.26-5-2.51-11.39,2.8-15,6.77-4.59,14.27-11.29,21.39-11.2s14.82,6.61,21.17,11.74c4.82,3.89,1.87,10.82,2,16.36.36,11.25-14.14,27.54-23.84,25.24-7.65-1.81-14.9-6.95-21.39-11.91C617.67,730.05,621.32,723.49,620.14,718.38Zm23.73,7.74c3.9-1.52,7.93-2.58,7.79-8.19-.15-6.05-4.24-8-8.73-7.79-4.16.23-7.39,2.89-7.09,8.34S640.06,724.91,643.88,726.12Z"/><path class="cls-17" d="M604.51,722.46c0,1.91.36,3.92-.09,5.71-1,4,2.69,11.52-2.82,11.27-5.75-.25-13.12-3.3-14.2-12.06-.76-6.13,3.34-15.93-7-16.21-10.58-.28-7,9.52-7.45,15.7-.7,8.91-8,10.32-13.8,13-3,1.36-3.21-2.2-3.23-4.38-.09-8.79-.36-17.59.08-26.35.29-5.8,20.43-18.87,26.14-17.49,14.07,3.39,22.44,14,22.43,28.52C604.53,720.93,604.53,721.7,604.51,722.46Z"/><path class="cls-18" d="M786.57,737.56c-7.45,3.86-12.36,11.43-20.92,6.16-9.11-5.61-20.44-8.36-18.26-24.37,1.93-14.19,5.94-22.4,20.52-26.22,10.76-2.83,17.73,6.31,25.41,11.59,3.51,2.41,3,8.38-2,11.44-3.16,2-6.38,3.82-9.51,5.69-3.9-1-1.81-4.6-3.14-6.5-2-2.92-4.86-5-8.44-4.25-3.24.7-6.39,2.16-6.72,6.48-.28,3.7.43,6.52,4,8.5C773.67,729.44,779.55,733.29,786.57,737.56Z"/><path class="cls-19" d="M708,710.91c4.69,1.26,8.45,3.48,8.15,9.1-.32,5.92-4.79,7.53-9.33,7.16-4.07-.34-8-2.45-7.61-7.88S703.2,711.64,708,710.91Z"/><path class="cls-20" d="M643.88,726.12c-3.82-1.21-7.74-2.05-8-7.63s2.94-8.11,7.09-8.34c4.49-.25,8.58,1.73,8.73,7.79C651.81,723.54,647.77,724.59,643.88,726.12Z"/></g><g id="PHP"><path class="cls-21" d="M478.28,650,464.4,687.27a10.51,10.51,0,0,0-1.71,2.93,162.24,162.24,0,0,1-35.54,44.9q-41.06,36.24-95.6,41.75a162.68,162.68,0,0,1-60.08-5.26c-1.31-.36-2.58-1-4-.88l-19.54-7.28c-.1-.65-.71-.59-1.11-.78-5.12-2.37-10.15-4.92-15-7.78A164.75,164.75,0,0,1,180,707.45a166.44,166.44,0,0,1-30-79.36,163.19,163.19,0,0,1,3.6-55.88,166.79,166.79,0,0,1,18.24-45.63,161.89,161.89,0,0,1,47.57-51.85q52.5-36.57,116.21-29.7a119.7,119.7,0,0,1,33.26,8.07c4.31,1.79,8.72,3.34,13.12,4.9a95.07,95.07,0,0,1,13.51,6,167.25,167.25,0,0,1,84.65,176.43C479.56,643.66,478.9,646.84,478.28,650ZM383.7,583l.41.15c1-2.75,2-5.51,3.1-8.23.45-1.11.32-1.65-.77-2.29-5.86-3.4-11.64-6.95-17.5-10.35-1.29-.75-1.45-1.41-.91-2.79,2.35-6,4.57-12.09,6.8-18.15,3.74-10.15,2.9-20.1-1.8-29.67-5.43-11.06-14.48-17.95-26.14-21.45-6.08-1.82-12.13-1.71-17.79,1.62s-9.41,8.55-11.76,14.54c-4.83,12.34-9.32,24.81-14,37.19-.52,1.36-.2,2,.94,2.65Q328.3,561,352.33,575.78q13.16,8.1,26.29,16.24c1,.64,1.54.73,2-.63C381.54,588.56,382.66,585.79,383.7,583ZM318.32,693c.68-1.83,1.33-3.68,2.05-5.49a40.85,40.85,0,0,0,3.23-12.88c1-18.17-10.57-35.1-29.63-40.86a23.71,23.71,0,0,0-13.78-.46c-7.13,2.08-11.52,7.24-14.88,13.48-2.69,5-4.24,10.45-6.25,15.72-3.13,8.22-6.14,16.48-9.25,24.71-.39,1-.43,1.63.71,2.19,1.36.66,2.58,1.59,3.87,2.38l51,31.39,20.22,12.46c.63.39,1.06.61,1.44-.37q3.35-8.56,6.83-17.07c.45-1.1.18-1.57-.79-2.14-6-3.51-11.91-7.12-17.9-10.63a1.37,1.37,0,0,1-.7-2.05C315.78,699.91,317,696.44,318.32,693Zm32.42-84.61a3,3,0,0,0,.31-.48c2.42-6.46,4.81-12.92,7.25-19.37.35-.92,0-1.2-.74-1.6Q338,575.64,318.4,564.3c-7.17-4.16-14.23-3.22-19.93,2.75a34.22,34.22,0,0,0-7.18,11.7c-2,5.33-4,10.68-6,16-.69,1.84-.69,1.85-2.37.84-5.82-3.48-11.65-6.93-17.43-10.47-1.13-.7-1.46-.47-1.88.69-2,5.46-4,10.93-6.11,16.32-.61,1.53-.18,2.12,1.06,2.88q17.08,10.41,34.1,20.92,20.3,12.47,40.59,25c1.09.67,1.56.64,2-.68q2.8-8.42,5.79-16.77c.38-1.06-.2-1.34-.84-1.74l-21.56-13.38q-9.6-6-19.2-11.93c-.57-.36-1.13-.6-.79-1.48,2.19-5.55,3.9-11.3,6.44-16.71,1.8-3.84,4.06-4.53,7.78-2.4,6.35,3.63,12.62,7.42,18.9,11.17S344.41,604.57,350.74,608.37Z"/><path class="cls-22" d="M383.7,583c-1,2.79-2.16,5.56-3.09,8.4-.45,1.36-1,1.27-2,.63q-13.13-8.15-26.29-16.24-24-14.79-48.09-29.55c-1.14-.7-1.46-1.29-.94-2.65,4.71-12.39,9.19-24.86,14-37.19,2.35-6,6-11.17,11.76-14.54s11.71-3.45,17.79-1.62c11.66,3.5,20.71,10.39,26.14,21.45,4.7,9.58,5.55,19.52,1.8,29.67-2.24,6.06-4.46,12.13-6.8,18.15-.54,1.38-.37,2,.91,2.79,5.86,3.41,11.64,6.95,17.5,10.35,1.1.64,1.22,1.18.77,2.29-1.1,2.71-2.07,5.48-3.1,8.23Zm-28-38.95a30.39,30.39,0,0,0,3.25-9.49c1.16-8.12-1.5-14.47-8.32-19.07a48.22,48.22,0,0,0-6.54-3.62,9,9,0,0,0-10.86,2,15.4,15.4,0,0,0-2.89,4.1c-2.33,4.85-3.86,10-5.86,15-.35.87,0,1.22.7,1.64q13.43,7.79,26.8,15.66c1,.58,1.31.32,1.63-.56C354.26,547.8,355,545.92,355.67,544Z"/><path class="cls-22" d="M318.32,693c-1.29,3.46-2.54,6.93-3.89,10.37a1.37,1.37,0,0,0,.7,2.05c6,3.5,11.92,7.11,17.9,10.63,1,.57,1.25,1,.79,2.14q-3.5,8.5-6.83,17.07c-.38,1-.82.76-1.44.37l-20.22-12.46-51-31.39c-1.29-.8-2.52-1.72-3.87-2.38-1.14-.56-1.09-1.17-.71-2.19,3.11-8.23,6.11-16.49,9.25-24.71,2-5.27,3.57-10.73,6.25-15.72,3.36-6.24,7.75-11.39,14.88-13.48a23.71,23.71,0,0,1,13.78.46c19.07,5.76,30.68,22.69,29.63,40.86a40.85,40.85,0,0,1-3.23,12.88C319.65,689.3,319,691.15,318.32,693Zm-44.85-23.2c-.8,2.14-1.54,4.29-2.41,6.4-.47,1.13-.42,1.72.79,2.42q13.32,7.65,26.52,15.49c1,.6,1.3.24,1.63-.6.51-1.32,1-2.62,1.57-3.93,1.66-4.05,3.54-8,3.93-12.49.6-7-1.64-12.56-7.19-16.81a34.47,34.47,0,0,0-6.68-4c-6.59-3-11.62-1.15-14.86,5.39C275.46,664.28,274.52,667,273.47,669.78Z"/><path class="cls-22" d="M350.74,608.37q-9.49-5.69-19-11.37c-6.29-3.75-12.55-7.53-18.9-11.17-3.71-2.13-6-1.43-7.78,2.4-2.54,5.41-4.25,11.15-6.44,16.71-.35.88.21,1.12.79,1.48q9.61,6,19.2,11.93l21.56,13.38c.64.4,1.22.68.84,1.74q-3,8.35-5.79,16.77c-.44,1.32-.9,1.35-2,.68Q313,638.4,292.68,626q-17-10.47-34.1-20.92c-1.24-.76-1.67-1.34-1.06-2.88,2.15-5.39,4.14-10.86,6.11-16.32.42-1.16.74-1.38,1.88-.69,5.78,3.54,11.61,7,17.43,10.47,1.68,1,1.69,1,2.37-.84,2-5.34,4-10.69,6-16a34.22,34.22,0,0,1,7.18-11.7c5.71-6,12.77-6.91,19.93-2.75q19.56,11.35,39.16,22.61c.7.4,1.09.69.74,1.6-2.45,6.45-4.84,12.91-7.25,19.37A3,3,0,0,1,350.74,608.37Z"/><path class="cls-23" d="M355.67,544c-.7,1.88-1.41,3.76-2.1,5.64-.32.88-.64,1.14-1.63.56q-13.36-7.9-26.8-15.66c-.73-.42-1.05-.77-.7-1.64,2-5,3.53-10.15,5.86-15a15.4,15.4,0,0,1,2.89-4.1,9,9,0,0,1,10.86-2,48.22,48.22,0,0,1,6.54,3.62c6.82,4.6,9.48,11,8.32,19.07A30.39,30.39,0,0,1,355.67,544Z"/><path class="cls-23" d="M273.47,669.78c1-2.73,2-5.51,3.29-8.14,3.25-6.54,8.28-8.39,14.86-5.39a34.47,34.47,0,0,1,6.68,4c5.56,4.25,7.8,9.85,7.19,16.81-.39,4.5-2.27,8.44-3.93,12.49-.53,1.3-1.06,2.61-1.57,3.93-.32.84-.61,1.2-1.63.6q-13.21-7.82-26.52-15.49c-1.21-.7-1.26-1.29-.79-2.42C271.94,674.08,272.68,671.92,273.47,669.78Z"/></g><g id="React"><path class="cls-24" d="M1062,560.7a29.4,29.4,0,0,1-29.66-29.61,29.68,29.68,0,1,1,59.36,0A29.47,29.47,0,0,1,1062,560.7Z"/><path class="cls-25" d="M1159.3,438a167.17,167.17,0,0,1-4.35,37.42c-.4,1.81.06,2.31,1.71,2.83,14.46,4.6,28.42,10.31,41.08,18.83A68.21,68.21,0,0,1,1215,512.86c8.77,11.86,8.76,24.75-.09,36.62-6.31,8.46-14.63,14.53-23.62,19.76a164.52,164.52,0,0,1-34.06,14.62c-1.67.52-2.25,1.08-1.82,3,3.14,14,5,28.12,4.3,42.47-.54,11.1-2.27,22-8.76,31.4-6.71,9.75-16.3,13.18-27.78,11.86-15.21-1.74-28-9.13-40.29-17.59a166,166,0,0,1-18.6-15c-1.51-1.4-2.33-1.39-3.84,0-11.3,10.37-23.42,19.62-37.3,26.33-8.07,3.9-16.5,6.79-25.54,6.82-12.51,0-21.52-5.82-27.22-18.21-3.74-8.14-5.06-16.84-5.45-25.68C964.24,615,966,600.89,969.13,587c.45-2-.16-2.57-1.93-3.13-16.17-5.09-31.66-11.65-45.32-21.93-6.31-4.75-11.9-10.2-15.66-17.25-5.31-9.94-4.74-19.7,1.2-29.19,5.55-8.87,13.54-15.14,22.26-20.54a156.12,156.12,0,0,1,37.19-16.47c2.09-.63,2.44-1.47,2-3.47-3-13.29-4.84-26.75-4.38-40.41.34-10.14,1.77-20.12,6.56-29.31,6.84-13.12,18.12-17.4,31.56-15.55,14.79,2,27.31,9.36,39.29,17.72a171.74,171.74,0,0,1,18.38,14.95c1.36,1.26,2.12,1.14,3.47-.1,12-11,24.83-20.78,39.76-27.52,6.69-3,13.63-5.29,21-5.7,14.34-.8,24.81,6.31,30.2,20.23C1158.35,418.81,1159.43,428.73,1159.3,438Zm-97.23,145c9.28.28,18.53-.42,27.79-.94a3.23,3.23,0,0,0,2.66-1.8,354.9,354.9,0,0,0,27.34-47.6,3.1,3.1,0,0,0,.07-3,346.39,346.39,0,0,0-27.69-47.92,3,3,0,0,0-2.59-1.48c-4.55-.22-9.09-.69-13.64-.81a396.18,396.18,0,0,0-41.7.86,3,3,0,0,0-2.44,1.4,357.52,357.52,0,0,0-27.67,48.2,2.71,2.71,0,0,0-.08,2.57,348,348,0,0,0,28,48.29,2.61,2.61,0,0,0,2.22,1.27C1043.54,582.59,1052.79,583.25,1062.07,583Zm145.1-51.74a12.47,12.47,0,0,0-1-4.62c-2.47-6.07-7.05-10.4-12.09-14.27-12.54-9.62-26.91-15.5-41.79-20.34-1.56-.51-1.63.4-1.92,1.36a300.22,300.22,0,0,1-13.37,36.3,2.86,2.86,0,0,0,0,2.57,298.75,298.75,0,0,1,13.41,36.05c.49,1.66,1,2.18,2.84,1.58a157.35,157.35,0,0,0,30.49-13.13c6.85-4,13.38-8.43,18.47-14.66C1204.89,538.85,1206.88,535.33,1207.17,531.24Zm-80.72-127.66a40.23,40.23,0,0,0-14.34,3.25c-14.73,6-27,15.62-38.69,26.15-1,.94-.84,1.53,0,2.36,1.11,1,2.14,2.16,3.16,3.29a331.78,331.78,0,0,1,21.62,26.47,3.08,3.08,0,0,0,2.31,1.56,322.68,322.68,0,0,1,38.31,6.53c1.39.33,1.87.07,2.16-1.33,2.79-13.57,4.63-27.23,3.59-41.12-.49-6.53-1.66-12.93-4.63-18.89C1137.18,406.24,1132.75,403.42,1126.45,403.58ZM979.33,622.77a84.44,84.44,0,0,0,.58,12.71c.77,5.12,1.78,10.18,4.19,14.83,3.34,6.45,7.58,8.74,15.06,8.3a41.35,41.35,0,0,0,13.39-3.45c14.46-6,26.56-15.52,38.1-25.86,1-.9.87-1.44,0-2.36a307.43,307.43,0,0,1-24.59-29.62,4.41,4.41,0,0,0-3.37-1.93A286.39,286.39,0,0,1,985.51,589c-1.36-.33-2.12,0-2.41,1.46C981,601.28,979.15,612.12,979.33,622.77Zm8.09-91.57c-.37-1-.7-1.89-1.09-2.79a289.64,289.64,0,0,1-12.82-35c-.44-1.51-1.06-1.62-2.4-1.18-11.93,3.93-23.54,8.59-34.21,15.32-6.39,4-12.42,8.5-16.74,14.87-4.16,6.14-4.16,11.15-.07,17.31,3.38,5.1,8,8.9,12.93,12.36,11.68,8.2,24.71,13.54,38.18,18,1.53.5,2.08.11,2.53-1.43a297.34,297.34,0,0,1,13-35.45C987,532.52,987.18,531.86,987.42,531.2Zm157.72,89.44c0-8.56-1.64-19.57-4-30.49-.32-1.46-.8-1.6-2.13-1.28a255.91,255.91,0,0,1-34,6c-3.5.35-6.23,1.22-8.49,4.47a227.5,227.5,0,0,1-22.55,27.14c-1.26,1.32-1,2.05.21,3.07,3,2.51,6,5.19,9,7.65,9.42,7.51,19.33,14.22,30.72,18.47a42.48,42.48,0,0,0,10.81,2.57c8.64.82,13.64-2.46,16.77-10.79C1144.43,639.64,1145.15,631.52,1145.14,620.63ZM979,438.87c-.09,3,.2,6.07.41,9.1A175,175,0,0,0,983,472c.28,1.32.89,1.6,2.07,1.3a301.45,301.45,0,0,1,38.51-6.66,2.65,2.65,0,0,0,2-1.26,285,285,0,0,1,24.7-29.81c1-1,1.14-1.72-.07-2.77-4.12-3.6-8.25-7.19-12.62-10.48-8.83-6.66-18.05-12.64-28.6-16.25a34.11,34.11,0,0,0-10.44-2.12c-8.61-.16-12.86,2.67-15.93,10.76C979.67,422.5,979.06,430.65,979,438.87Zm65.1,26.23c12.11-.56,23.74-.52,35.68,0-.51-.77-.8-1.29-1.16-1.74-4.45-5.58-9.13-11-14-16.23-2.65-2.87-2.67-2.85-5.42.06-.42.44-.85.87-1.26,1.31C1053.19,453.73,1048.61,459.08,1044.06,465.1Zm.1,131.94c5.53,7.27,11.24,13.56,17,19.84.92,1,1.44.58,2.17-.17,4.34-4.48,8.41-9.2,12.34-14,1.39-1.72,3-3.29,4.12-5.66A288.56,288.56,0,0,1,1044.16,597Zm66.57-18a3.15,3.15,0,0,0,2.3.23c7.39-1.26,14.77-2.58,22.06-4.33,1.56-.37,2-.71,1.46-2.36-1.77-5.8-3.69-11.56-5.82-17.23a30.61,30.61,0,0,0-2.78-6.5C1122.64,559.3,1116.88,569.24,1110.73,579Zm-97-96.4c-8.76,1.3-17,2.91-25.2,4.75-1.53.34-1.43,1-1.07,2.27,2.11,7,4.46,13.87,7.14,20.65.37.94.44,2.08,1.56,2.85C1001.55,502.74,1007.31,492.69,1013.77,482.6Zm-17.65,66.62c-.28.3-.5.44-.58.63-3,7.7-5.71,15.51-8.07,23.43-.38,1.29.25,1.3,1.17,1.53,7.43,1.85,15,3.12,22.51,4.41.62.11,1.46.49,1.88-.2s-.31-1.11-.6-1.61c-3.29-5.46-6.67-10.87-9.88-16.37C1000.31,557.19,998.29,553.22,996.13,549.22Zm132-35.86c3.36-8.36,6.09-16.45,8.52-24.65.33-1.11-.39-1.13-1-1.28-2.14-.5-4.28-1-6.43-1.44-6.13-1.25-12.27-2.48-18.91-3.34A347.54,347.54,0,0,1,1128.1,513.35Z"/></g><g id="Vue"><path class="cls-26" d="M765.23,203.85h64.32c-2.42,4.26-4.82,8.54-7.27,12.78q-40.83,70.76-81.68,141.51L670.1,480.3c-.31.53-.63,1.06-1,1.61-.57-.23-.68-.75-.91-1.15Q608.08,376.58,547.95,272.39L509,204.93c-.2-.34-.35-.72-.52-1.07h64.32a15.28,15.28,0,0,0,1.63,3.05q7.77,13.51,15.57,27l15.52,26.87L621.87,289q7.39,12.8,14.76,25.61,8.13,14.07,16.26,28.14,7.72,13.38,15.41,26.78c.56,1,.89,1,1.45,0q5.64-9.87,11.34-19.71l14.77-25.61,16.26-28.14,15.57-27,15.52-26.87q8.32-14.42,16.63-28.85C761.66,210.22,763.62,207.13,765.23,203.85Z"/><path class="cls-27" d="M765.23,203.85c-1.61,3.28-3.57,6.37-5.39,9.53q-8.29,14.44-16.63,28.85l-15.52,26.87-15.57,27-16.26,28.14-14.77,25.61q-5.68,9.85-11.34,19.71c-.56,1-.89,1-1.45,0q-7.68-13.4-15.41-26.78-8.12-14.08-16.26-28.14-7.39-12.8-14.76-25.61l-16.33-28.26L590,233.9q-7.79-13.5-15.57-27a15.28,15.28,0,0,1-1.63-3.05H632q4.44,7.64,8.88,15.29,5.42,9.37,10.82,18.76,8.39,14.56,16.76,29.13c.65,1.14.85.35,1.15-.17l8.1-14q5.87-10.18,11.74-20.37l16.08-28a5,5,0,0,1,.5-.62Z"/></g></svg>