<svg xmlns="http://www.w3.org/2000/svg" viewBox="0 0 1366 1366"><defs><style>.cls-1{font-size:209.97px;font-family:Papyrus-Regular, Papyrus;}.cls-1,.cls-2{fill:#000333;}.cls-2{font-size:210.38px;font-family:MaiandraGD-Regular, Maiandra GD;}.cls-3{fill:#ffad00;}</style></defs><title>barner1</title><g id="barner"><text class="cls-1" transform="translate(170.63 444.33) rotate(-3.7)">I am Caleb</text><text class="cls-2" transform="matrix(0.78, -0.18, 0.23, 0.97, 211.73, 781.03)">the developer</text><path class="cls-3" d="M1234,408c0,3.85-1027.87,57.87-1106,215-26.33,53-18,100-18,100s10,56.46,69,103C332.95,947.44,1251.38,550.72,1266,580c6.13,12.27-154.74,69-240,224-67.88,123.41-67,239.85-64,288-63.78-66-161.14-146.65-296-188-273.56-83.87-480.21,66-596-52C6.73,787.5-1.51,671.81,38,600c54.22-98.55,196.19-110.49,352-124C390,476,1234.06,401.74,1234,408Z"/></g></svg>